<?xml version="1.0" encoding="UTF-8" standalone="no"?>
<!-- Created with Inkscape (http://www.inkscape.org/) -->

<svg
   xmlns:dc="http://purl.org/dc/elements/1.1/"
   xmlns:cc="http://creativecommons.org/ns#"
   xmlns:rdf="http://www.w3.org/1999/02/22-rdf-syntax-ns#"
   xmlns:svg="http://www.w3.org/2000/svg"
   xmlns="http://www.w3.org/2000/svg"
   xmlns:xlink="http://www.w3.org/1999/xlink"
   xmlns:sodipodi="http://sodipodi.sourceforge.net/DTD/sodipodi-0.dtd"
   xmlns:inkscape="http://www.inkscape.org/namespaces/inkscape"
   width="210mm"
   height="297mm"
   id="svg2"
   version="1.1"
   inkscape:version="0.48.4 r9939"
   sodipodi:docname="ic_designs.svg">
  <defs
     id="defs4">
    <linearGradient
       id="linearGradient3911">
      <stop
         style="stop-color:#ffffff;stop-opacity:1;"
         offset="0"
         id="stop3913" />
      <stop
         style="stop-color:#ffffff;stop-opacity:0.00284091"
         offset="1"
         id="stop3915" />
    </linearGradient>
    <radialGradient
       inkscape:collect="always"
       xlink:href="#linearGradient3911"
       id="radialGradient3919"
       cx="384.36047"
       cy="220.6113"
       fx="384.36047"
       fy="220.6113"
       r="50"
       gradientTransform="matrix(1,0,0,0.54647211,-297.48992,-68.801332)"
       gradientUnits="userSpaceOnUse" />
    <radialGradient
       inkscape:collect="always"
       xlink:href="#linearGradient3911"
       id="radialGradient3977"
       gradientUnits="userSpaceOnUse"
       gradientTransform="matrix(1.4999999,0,0,1.5654592,-479.42775,-101.7709)"
       cx="384.36047"
       cy="220.6113"
       fx="384.36047"
       fy="220.6113"
       r="50" />
    <radialGradient
       inkscape:collect="always"
       xlink:href="#linearGradient3911"
       id="radialGradient4160"
       gradientUnits="userSpaceOnUse"
       gradientTransform="matrix(1,0,0,1.3159956,-297.48992,116.706)"
       cx="384.36047"
       cy="220.6113"
       fx="384.36047"
       fy="220.6113"
       r="50" />
    <radialGradient
       inkscape:collect="always"
       xlink:href="#linearGradient3911"
       id="radialGradient4231"
       gradientUnits="userSpaceOnUse"
       gradientTransform="matrix(1,0,0,0.54647211,-297.48992,-68.801332)"
       cx="384.36047"
       cy="220.6113"
       fx="384.36047"
       fy="220.6113"
       r="50" />
    <radialGradient
       inkscape:collect="always"
       xlink:href="#linearGradient3911"
       id="radialGradient4234"
       gradientUnits="userSpaceOnUse"
       gradientTransform="matrix(0.40000001,0,0,0.54647211,51.719796,-67.791179)"
       cx="384.36047"
       cy="220.6113"
       fx="384.36047"
       fy="220.6113"
       r="50" />
    <radialGradient
       inkscape:collect="always"
       xlink:href="#linearGradient3911"
       id="radialGradient4274"
       gradientUnits="userSpaceOnUse"
       gradientTransform="matrix(1,0,0,0.54647211,-297.48992,-68.801332)"
       cx="384.36047"
       cy="220.6113"
       fx="384.36047"
       fy="220.6113"
       r="50" />
    <radialGradient
       inkscape:collect="always"
       xlink:href="#linearGradient3911"
       id="radialGradient4299"
       gradientUnits="userSpaceOnUse"
       gradientTransform="matrix(0.40000001,0,0,0.54647211,51.719796,-67.791179)"
       cx="384.36047"
       cy="220.6113"
       fx="384.36047"
       fy="220.6113"
       r="50" />
    <radialGradient
       inkscape:collect="always"
       xlink:href="#linearGradient3911"
       id="radialGradient4302"
       gradientUnits="userSpaceOnUse"
       gradientTransform="matrix(0.40000001,0,0,0.54647211,51.719796,-67.791179)"
       cx="384.36047"
       cy="220.6113"
       fx="384.36047"
       fy="220.6113"
       r="50" />
    <radialGradient
       inkscape:collect="always"
       xlink:href="#linearGradient3911"
       id="radialGradient4321"
       gradientUnits="userSpaceOnUse"
       gradientTransform="matrix(1.4999999,0,0,1.5654592,-463.26531,-180.5628)"
       cx="384.36047"
       cy="220.6113"
       fx="384.36047"
       fy="220.6113"
       r="50" />
    <radialGradient
       inkscape:collect="always"
       xlink:href="#linearGradient3911"
       id="radialGradient4352"
       gradientUnits="userSpaceOnUse"
       gradientTransform="matrix(1,0,0,1.3159956,-89.3985,-133.81183)"
       cx="384.36047"
       cy="220.6113"
       fx="384.36047"
       fy="220.6113"
       r="50" />
  </defs>
  <sodipodi:namedview
     id="base"
     pagecolor="#ffffff"
     bordercolor="#666666"
     borderopacity="1.0"
     inkscape:pageopacity="0.0"
     inkscape:pageshadow="2"
     inkscape:zoom="1.06"
     inkscape:cx="20.231258"
     inkscape:cy="878.50637"
     inkscape:document-units="px"
     inkscape:current-layer="layer1"
     showgrid="false"
     inkscape:window-width="1360"
     inkscape:window-height="702"
     inkscape:window-x="0"
     inkscape:window-y="27"
     inkscape:window-maximized="1" />
  <metadata
     id="metadata7">
    <rdf:RDF>
      <cc:Work
         rdf:about="">
        <dc:format>image/svg+xml</dc:format>
        <dc:type
           rdf:resource="http://purl.org/dc/dcmitype/StillImage" />
        <dc:title></dc:title>
      </cc:Work>
    </rdf:RDF>
  </metadata>
  <g
     inkscape:label="レイヤー 1"
     inkscape:groupmode="layer"
     id="layer1">
    <g
       id="g4376"
       inkscape:export-filename="/home/mjhd/Sync/Projects/MachineDisplay/Resources/ic.png"
       inkscape:export-xdpi="90"
       inkscape:export-ydpi="90">
      <path
         inkscape:connector-curvature="0"
         style="fill:#b3b3b3;stroke:none"
         d="m 37.885073,43.686976 0,-6.21875 0.40625,-2.375 2.21875,0 0.40625,2.375 0,6.21875 -3.03125,0 z"
         id="path3121" />
      <path
         id="path3123"
         d="m 47.885073,43.686976 0,-6.21875 0.40625,-2.375 2.21875,0 0.40625,2.375 0,6.21875 -3.03125,0 z"
         style="fill:#b3b3b3;stroke:none"
         inkscape:connector-curvature="0" />
      <path
         inkscape:connector-curvature="0"
         style="fill:#b3b3b3;stroke:none"
         d="m 57.885073,43.686976 0,-6.21875 0.40625,-2.375 2.21875,0 0.40625,2.375 0,6.21875 -3.03125,0 z"
         id="path3125" />
      <path
         id="path3127"
         d="m 67.885073,43.686976 0,-6.21875 0.40625,-2.375 2.21875,0 0.40625,2.375 0,6.21875 -3.03125,0 z"
         style="fill:#b3b3b3;stroke:none"
         inkscape:connector-curvature="0" />
      <path
         inkscape:connector-curvature="0"
         style="fill:#b3b3b3;stroke:none"
         d="m 77.885073,43.686976 0,-6.21875 0.40625,-2.375 2.21875,0 0.40625,2.375 0,6.21875 -3.03125,0 z"
         id="path3129" />
      <path
         id="path3131"
         d="m 87.885073,43.686976 0,-6.21875 0.40625,-2.375 2.21875,0 0.40625,2.375 0,6.21875 -3.03125,0 z"
         style="fill:#b3b3b3;stroke:none"
         inkscape:connector-curvature="0" />
      <path
         inkscape:connector-curvature="0"
         style="fill:#b3b3b3;stroke:none"
         d="m 97.885073,43.686976 0,-6.21875 0.40625,-2.375 2.218747,0 0.40625,2.375 0,6.21875 -3.031247,0 z"
         id="path3133" />
      <path
         id="path3135"
         d="m 107.88507,43.686976 0,-6.21875 0.40625,-2.375 2.21875,0 0.40625,2.375 0,6.21875 -3.03125,0 z"
         style="fill:#b3b3b3;stroke:none"
         inkscape:connector-curvature="0" />
      <path
         inkscape:connector-curvature="0"
         style="fill:#b3b3b3;stroke:none"
         d="m 117.88507,43.686976 0,-6.21875 0.40625,-2.375 2.21875,0 0.40625,2.375 0,6.21875 -3.03125,0 z"
         id="path3137" />
      <path
         id="path3139"
         d="m 127.88507,43.686976 0,-6.21875 0.40625,-2.375 2.21875,0 0.40625,2.375 0,6.21875 -3.03125,0 z"
         style="fill:#b3b3b3;stroke:none"
         inkscape:connector-curvature="0" />
      <rect
         y="38.070042"
         x="35.35532"
         height="40"
         width="100"
         id="rect3088"
         style="fill:#333333;stroke:none" />
      <rect
         style="fill:#1a1a1a;stroke:none"
         id="rect3090"
         width="100"
         height="5.1497374"
         x="35.35532"
         y="77.889862" />
      <rect
         y="76.290283"
         x="35.35532"
         height="1.1091272"
         width="100"
         id="rect3092"
         style="opacity:0.51988639;fill:#b3b3b3;stroke:none" />
      <path
         inkscape:connector-curvature="0"
         id="path3100"
         d="m 37.885073,81.093226 0,6.21875 0.40625,2.375 2.21875,0 0.40625,-2.375 0,-6.21875 -3.03125,0 z"
         style="fill:#b3b3b3;stroke:none" />
      <path
         inkscape:connector-curvature="0"
         style="fill:#b3b3b3;stroke:none"
         d="m 47.885073,81.093226 0,6.21875 0.40625,2.375 2.21875,0 0.40625,-2.375 0,-6.21875 -3.03125,0 z"
         id="path3103" />
      <path
         id="path3105"
         d="m 57.885073,81.093226 0,6.21875 0.40625,2.375 2.21875,0 0.40625,-2.375 0,-6.21875 -3.03125,0 z"
         style="fill:#b3b3b3;stroke:none"
         inkscape:connector-curvature="0" />
      <path
         inkscape:connector-curvature="0"
         style="fill:#b3b3b3;stroke:none"
         d="m 67.885073,81.093226 0,6.21875 0.40625,2.375 2.21875,0 0.40625,-2.375 0,-6.21875 -3.03125,0 z"
         id="path3107" />
      <path
         id="path3109"
         d="m 77.885073,81.093226 0,6.21875 0.40625,2.375 2.21875,0 0.40625,-2.375 0,-6.21875 -3.03125,0 z"
         style="fill:#b3b3b3;stroke:none"
         inkscape:connector-curvature="0" />
      <path
         inkscape:connector-curvature="0"
         style="fill:#b3b3b3;stroke:none"
         d="m 87.885073,81.093226 0,6.21875 0.40625,2.375 2.21875,0 0.40625,-2.375 0,-6.21875 -3.03125,0 z"
         id="path3111" />
      <path
         id="path3113"
         d="m 97.885073,81.093226 0,6.21875 0.40625,2.375 2.218747,0 0.40625,-2.375 0,-6.21875 -3.031247,0 z"
         style="fill:#b3b3b3;stroke:none"
         inkscape:connector-curvature="0" />
      <path
         inkscape:connector-curvature="0"
         style="fill:#b3b3b3;stroke:none"
         d="m 107.88507,81.093226 0,6.21875 0.40625,2.375 2.21875,0 0.40625,-2.375 0,-6.21875 -3.03125,0 z"
         id="path3115" />
      <path
         id="path3117"
         d="m 117.88507,81.093226 0,6.21875 0.40625,2.375 2.21875,0 0.40625,-2.375 0,-6.21875 -3.03125,0 z"
         style="fill:#b3b3b3;stroke:none"
         inkscape:connector-curvature="0" />
      <path
         inkscape:connector-curvature="0"
         style="fill:#b3b3b3;stroke:none"
         d="m 127.88507,81.093226 0,6.21875 0.40625,2.375 2.21875,0 0.40625,-2.375 0,-6.21875 -3.03125,0 z"
         id="path3119" />
    </g>
    <g
       id="g4409"
       inkscape:export-filename="/home/mjhd/Sync/Projects/MachineDisplay/Resources/ic_mm.png"
       inkscape:export-xdpi="90"
       inkscape:export-ydpi="90">
      <path
         inkscape:connector-curvature="0"
         id="path3989"
         d="m 38.532284,131.20476 0,-6.21875 0.40625,-2.375 2.21875,0 0.40625,2.375 0,6.21875 -3.03125,0 z"
         style="fill:#b3b3b3;stroke:none" />
      <path
         inkscape:connector-curvature="0"
         style="fill:#b3b3b3;stroke:none"
         d="m 48.532284,131.20476 0,-6.21875 0.40625,-2.375 2.21875,0 0.40625,2.375 0,6.21875 -3.03125,0 z"
         id="path3991" />
      <path
         id="path3993"
         d="m 58.532284,131.20476 0,-6.21875 0.40625,-2.375 2.21875,0 0.40625,2.375 0,6.21875 -3.03125,0 z"
         style="fill:#b3b3b3;stroke:none"
         inkscape:connector-curvature="0" />
      <path
         inkscape:connector-curvature="0"
         style="fill:#b3b3b3;stroke:none"
         d="m 68.532284,131.20476 0,-6.21875 0.40625,-2.375 2.21875,0 0.40625,2.375 0,6.21875 -3.03125,0 z"
         id="path3995" />
      <path
         id="path3997"
         d="m 78.532284,131.20476 0,-6.21875 0.40625,-2.375 2.21875,0 0.40625,2.375 0,6.21875 -3.03125,0 z"
         style="fill:#b3b3b3;stroke:none"
         inkscape:connector-curvature="0" />
      <path
         inkscape:connector-curvature="0"
         style="fill:#b3b3b3;stroke:none"
         d="m 88.532284,131.20476 0,-6.21875 0.40625,-2.375 2.21875,0 0.40625,2.375 0,6.21875 -3.03125,0 z"
         id="path3999" />
      <path
         id="path4001"
         d="m 98.532284,131.20476 0,-6.21875 0.40625,-2.375 2.218746,0 0.40625,2.375 0,6.21875 -3.031246,0 z"
         style="fill:#b3b3b3;stroke:none"
         inkscape:connector-curvature="0" />
      <path
         inkscape:connector-curvature="0"
         style="fill:#b3b3b3;stroke:none"
         d="m 108.53228,131.20476 0,-6.21875 0.40625,-2.375 2.21875,0 0.40625,2.375 0,6.21875 -3.03125,0 z"
         id="path4003" />
      <path
         id="path4005"
         d="m 118.53228,131.20476 0,-6.21875 0.40625,-2.375 2.21875,0 0.40625,2.375 0,6.21875 -3.03125,0 z"
         style="fill:#b3b3b3;stroke:none"
         inkscape:connector-curvature="0" />
      <path
         inkscape:connector-curvature="0"
         style="fill:#b3b3b3;stroke:none"
         d="m 128.53228,131.20476 0,-6.21875 0.40625,-2.375 2.21875,0 0.40625,2.375 0,6.21875 -3.03125,0 z"
         id="path4007" />
      <path
         id="path4009"
         d="m 138.53228,131.20476 0,-6.21875 0.40625,-2.375 2.21875,0 0.40625,2.375 0,6.21875 -3.03125,0 z"
         style="fill:#b3b3b3;stroke:none"
         inkscape:connector-curvature="0" />
      <path
         inkscape:connector-curvature="0"
         style="fill:#b3b3b3;stroke:none"
         d="m 148.53228,131.20476 0,-6.21875 0.40625,-2.375 2.21875,0 0.40625,2.375 0,6.21875 -3.03125,0 z"
         id="path4011" />
      <path
         id="path4013"
         d="m 158.53228,131.20476 0,-6.21875 0.40625,-2.375 2.21875,0 0.40625,2.375 0,6.21875 -3.03125,0 z"
         style="fill:#b3b3b3;stroke:none"
         inkscape:connector-curvature="0" />
      <path
         inkscape:connector-curvature="0"
         style="fill:#b3b3b3;stroke:none"
         d="m 168.53228,131.20476 0,-6.21875 0.40625,-2.375 2.21875,0 0.40625,2.375 0,6.21875 -3.03125,0 z"
         id="path4015" />
      <path
         id="path4017"
         d="m 178.53228,131.20476 0,-6.21875 0.40625,-2.375 2.21875,0 0.40625,2.375 0,6.21875 -3.03125,0 z"
         style="fill:#b3b3b3;stroke:none"
         inkscape:connector-curvature="0" />
      <rect
         style="fill:#333333;stroke:none"
         id="rect3949"
         width="150"
         height="109.95306"
         x="36.002529"
         y="125.58781" />
      <rect
         y="235.40765"
         x="36.002529"
         height="5.1497374"
         width="150"
         id="rect3951"
         style="fill:#1a1a1a;stroke:none" />
      <rect
         style="opacity:0.51988639;fill:#b3b3b3;stroke:none"
         id="rect3953"
         width="150"
         height="1.1091272"
         x="36.002529"
         y="234.50815" />
      <path
         style="fill:#b3b3b3;stroke:none"
         d="m 38.532284,238.61101 0,6.21875 0.40625,2.375 2.21875,0 0.40625,-2.375 0,-6.21875 -3.03125,0 z"
         id="path3955"
         inkscape:connector-curvature="0" />
      <path
         id="path3957"
         d="m 48.532284,238.61101 0,6.21875 0.40625,2.375 2.21875,0 0.40625,-2.375 0,-6.21875 -3.03125,0 z"
         style="fill:#b3b3b3;stroke:none"
         inkscape:connector-curvature="0" />
      <path
         inkscape:connector-curvature="0"
         style="fill:#b3b3b3;stroke:none"
         d="m 58.532284,238.61101 0,6.21875 0.40625,2.375 2.21875,0 0.40625,-2.375 0,-6.21875 -3.03125,0 z"
         id="path3959" />
      <path
         id="path3961"
         d="m 68.532284,238.61101 0,6.21875 0.40625,2.375 2.21875,0 0.40625,-2.375 0,-6.21875 -3.03125,0 z"
         style="fill:#b3b3b3;stroke:none"
         inkscape:connector-curvature="0" />
      <path
         inkscape:connector-curvature="0"
         style="fill:#b3b3b3;stroke:none"
         d="m 78.532284,238.61101 0,6.21875 0.40625,2.375 2.21875,0 0.40625,-2.375 0,-6.21875 -3.03125,0 z"
         id="path3963" />
      <path
         id="path3965"
         d="m 88.532284,238.61101 0,6.21875 0.40625,2.375 2.21875,0 0.40625,-2.375 0,-6.21875 -3.03125,0 z"
         style="fill:#b3b3b3;stroke:none"
         inkscape:connector-curvature="0" />
      <path
         inkscape:connector-curvature="0"
         style="fill:#b3b3b3;stroke:none"
         d="m 98.532284,238.61101 0,6.21875 0.40625,2.375 2.218746,0 0.40625,-2.375 0,-6.21875 -3.031246,0 z"
         id="path3967" />
      <path
         id="path3969"
         d="m 108.53228,238.61101 0,6.21875 0.40625,2.375 2.21875,0 0.40625,-2.375 0,-6.21875 -3.03125,0 z"
         style="fill:#b3b3b3;stroke:none"
         inkscape:connector-curvature="0" />
      <path
         inkscape:connector-curvature="0"
         style="fill:#b3b3b3;stroke:none"
         d="m 118.53228,238.61101 0,6.21875 0.40625,2.375 2.21875,0 0.40625,-2.375 0,-6.21875 -3.03125,0 z"
         id="path3971" />
      <path
         id="path3973"
         d="m 128.53228,238.61101 0,6.21875 0.40625,2.375 2.21875,0 0.40625,-2.375 0,-6.21875 -3.03125,0 z"
         style="fill:#b3b3b3;stroke:none"
         inkscape:connector-curvature="0" />
      <path
         inkscape:connector-curvature="0"
         style="fill:#b3b3b3;stroke:none"
         d="m 138.53228,238.61101 0,6.21875 0.40625,2.375 2.21875,0 0.40625,-2.375 0,-6.21875 -3.03125,0 z"
         id="path3979" />
      <path
         id="path3981"
         d="m 148.53228,238.61101 0,6.21875 0.40625,2.375 2.21875,0 0.40625,-2.375 0,-6.21875 -3.03125,0 z"
         style="fill:#b3b3b3;stroke:none"
         inkscape:connector-curvature="0" />
      <path
         inkscape:connector-curvature="0"
         style="fill:#b3b3b3;stroke:none"
         d="m 158.53228,238.61101 0,6.21875 0.40625,2.375 2.21875,0 0.40625,-2.375 0,-6.21875 -3.03125,0 z"
         id="path3983" />
      <path
         id="path3985"
         d="m 168.53228,238.61101 0,6.21875 0.40625,2.375 2.21875,0 0.40625,-2.375 0,-6.21875 -3.03125,0 z"
         style="fill:#b3b3b3;stroke:none"
         inkscape:connector-curvature="0" />
      <path
         inkscape:connector-curvature="0"
         style="fill:#b3b3b3;stroke:none"
         d="m 178.53228,238.61101 0,6.21875 0.40625,2.375 2.21875,0 0.40625,-2.375 0,-6.21875 -3.03125,0 z"
         id="path3987" />
    </g>
    <g
       id="g4457"
       inkscape:export-filename="/home/mjhd/Sync/Projects/MachineDisplay/Resources/ic_alu.png"
       inkscape:export-xdpi="90"
       inkscape:export-ydpi="90">
      <path
         inkscape:connector-curvature="0"
         style="fill:#b3b3b3;stroke:none"
         d="m 325.33363,129.74057 0,-12.93823 0.84521,-4.94123 4.61615,0 0.84521,4.94123 0,12.93823 -6.30657,0 z"
         id="path4071" />
      <path
         id="path4069"
         d="m 254.63362,129.74057 0,-12.93823 0.84521,-4.94123 4.61615,0 0.84521,4.94123 0,12.93823 -6.30657,0 z"
         style="fill:#b3b3b3;stroke:none"
         inkscape:connector-curvature="0" />
      <path
         id="path4019"
         d="m 245.97649,129.16915 0,-6.21875 0.40625,-2.375 2.21875,0 0.40625,2.375 0,6.21875 -3.03125,0 z"
         style="fill:#b3b3b3;stroke:none"
         inkscape:connector-curvature="0" />
      <path
         id="path4023"
         d="m 265.97649,129.16915 0,-6.21875 0.40625,-2.375 2.21875,0 0.40625,2.375 0,6.21875 -3.03125,0 z"
         style="fill:#b3b3b3;stroke:none"
         inkscape:connector-curvature="0" />
      <path
         inkscape:connector-curvature="0"
         style="fill:#b3b3b3;stroke:none"
         d="m 275.97649,129.16915 0,-6.21875 0.40625,-2.375 2.21875,0 0.40625,2.375 0,6.21875 -3.03125,0 z"
         id="path4025" />
      <path
         id="path4027"
         d="m 285.97649,129.16915 0,-6.21875 0.40625,-2.375 2.21875,0 0.40625,2.375 0,6.21875 -3.03125,0 z"
         style="fill:#b3b3b3;stroke:none"
         inkscape:connector-curvature="0" />
      <path
         inkscape:connector-curvature="0"
         style="fill:#b3b3b3;stroke:none"
         d="m 295.97649,129.16915 0,-6.21875 0.40625,-2.375 2.21875,0 0.40625,2.375 0,6.21875 -3.03125,0 z"
         id="path4029" />
      <path
         id="path4031"
         d="m 305.97649,129.16915 0,-6.21875 0.40625,-2.375 2.21875,0 0.40625,2.375 0,6.21875 -3.03125,0 z"
         style="fill:#b3b3b3;stroke:none"
         inkscape:connector-curvature="0" />
      <path
         inkscape:connector-curvature="0"
         style="fill:#b3b3b3;stroke:none"
         d="m 315.97649,129.16915 0,-6.21875 0.40625,-2.375 2.21875,0 0.40625,2.375 0,6.21875 -3.03125,0 z"
         id="path4033" />
      <path
         inkscape:connector-curvature="0"
         style="fill:#b3b3b3;stroke:none"
         d="m 335.97649,129.16915 0,-6.21875 0.40625,-2.375 2.21875,0 0.40625,2.375 0,6.21875 -3.03125,0 z"
         id="path4037" />
      <rect
         style="fill:#333333;stroke:none"
         id="rect4039"
         width="100"
         height="93.928574"
         x="243.44675"
         y="123.55224" />
      <rect
         y="217.37206"
         x="243.44675"
         height="5.1497374"
         width="100"
         id="rect4041"
         style="fill:#1a1a1a;stroke:none" />
      <rect
         style="opacity:0.51988639;fill:#b3b3b3;stroke:none"
         id="rect4043"
         width="100"
         height="1.1091272"
         x="243.44675"
         y="215.77245" />
      <path
         style="fill:#b3b3b3;stroke:none"
         d="m 245.97649,220.5754 0,6.21875 0.40625,2.375 2.21875,0 0.40625,-2.375 0,-6.21875 -3.03125,0 z"
         id="path4045"
         inkscape:connector-curvature="0" />
      <path
         id="path4047"
         d="m 255.97649,220.5754 0,6.21875 0.40625,2.375 2.21875,0 0.40625,-2.375 0,-6.21875 -3.03125,0 z"
         style="fill:#b3b3b3;stroke:none"
         inkscape:connector-curvature="0" />
      <path
         inkscape:connector-curvature="0"
         style="fill:#b3b3b3;stroke:none"
         d="m 265.97649,220.5754 0,6.21875 0.40625,2.375 2.21875,0 0.40625,-2.375 0,-6.21875 -3.03125,0 z"
         id="path4049" />
      <path
         id="path4051"
         d="m 275.97649,220.5754 0,6.21875 0.40625,2.375 2.21875,0 0.40625,-2.375 0,-6.21875 -3.03125,0 z"
         style="fill:#b3b3b3;stroke:none"
         inkscape:connector-curvature="0" />
      <path
         inkscape:connector-curvature="0"
         style="fill:#b3b3b3;stroke:none"
         d="m 289.97649,220.5754 0,12.93823 0.84521,4.94123 4.61615,0 0.84521,-4.94123 0,-12.93823 -6.30657,0 z"
         id="path4053" />
      <path
         inkscape:connector-curvature="0"
         style="fill:#b3b3b3;stroke:none"
         d="m 305.97649,220.5754 0,6.21875 0.40625,2.375 2.21875,0 0.40625,-2.375 0,-6.21875 -3.03125,0 z"
         id="path4057" />
      <path
         id="path4059"
         d="m 315.97649,220.5754 0,6.21875 0.40625,2.375 2.21875,0 0.40625,-2.375 0,-6.21875 -3.03125,0 z"
         style="fill:#b3b3b3;stroke:none"
         inkscape:connector-curvature="0" />
      <path
         inkscape:connector-curvature="0"
         style="fill:#b3b3b3;stroke:none"
         d="m 325.97649,220.5754 0,6.21875 0.40625,2.375 2.21875,0 0.40625,-2.375 0,-6.21875 -3.03125,0 z"
         id="path4061" />
      <path
         id="path4063"
         d="m 335.97649,220.5754 0,6.21875 0.40625,2.375 2.21875,0 0.40625,-2.375 0,-6.21875 -3.03125,0 z"
         style="fill:#b3b3b3;stroke:none"
         inkscape:connector-curvature="0" />
    </g>
    <g
       id="g4444"
       inkscape:export-filename="/home/mjhd/Sync/Projects/MachineDisplay/Resources/ic_small.png"
       inkscape:export-xdpi="90"
       inkscape:export-ydpi="90">
      <path
         id="path4183"
         d="m 187.38765,44.697128 0,-6.21875 0.40625,-2.375 2.21875,0 0.40625,2.375 0,6.21875 -3.03125,0 z"
         style="fill:#b3b3b3;stroke:none"
         inkscape:connector-curvature="0" />
      <path
         inkscape:connector-curvature="0"
         style="fill:#b3b3b3;stroke:none"
         d="m 197.38765,44.697128 0,-6.21875 0.40625,-2.375 2.21875,0 0.40625,2.375 0,6.21875 -3.03125,0 z"
         id="path4185" />
      <path
         id="path4187"
         d="m 207.38765,44.697128 0,-6.21875 0.40625,-2.375 2.21875,0 0.40625,2.375 0,6.21875 -3.03125,0 z"
         style="fill:#b3b3b3;stroke:none"
         inkscape:connector-curvature="0" />
      <path
         inkscape:connector-curvature="0"
         style="fill:#b3b3b3;stroke:none"
         d="m 217.38765,44.697128 0,-6.21875 0.40625,-2.375 2.21875,0 0.40625,2.375 0,6.21875 -3.03125,0 z"
         id="path4189" />
      <rect
         style="fill:#333333;stroke:none"
         id="rect4203"
         width="40"
         height="40"
         x="184.85789"
         y="39.080193" />
      <rect
         y="78.900017"
         x="184.85789"
         height="5.1497374"
         width="40"
         id="rect4205"
         style="fill:#1a1a1a;stroke:none" />
      <rect
         style="opacity:0.51988639;fill:#b3b3b3;stroke:none"
         id="rect4207"
         width="40"
         height="1.1091272"
         x="184.85789"
         y="77.300438" />
      <path
         style="fill:#b3b3b3;stroke:none"
         d="m 187.38765,82.103379 0,6.21875 0.40625,2.375 2.21875,0 0.40625,-2.375 0,-6.21875 -3.03125,0 z"
         id="path4209"
         inkscape:connector-curvature="0" />
      <path
         id="path4211"
         d="m 197.38765,82.103379 0,6.21875 0.40625,2.375 2.21875,0 0.40625,-2.375 0,-6.21875 -3.03125,0 z"
         style="fill:#b3b3b3;stroke:none"
         inkscape:connector-curvature="0" />
      <path
         inkscape:connector-curvature="0"
         style="fill:#b3b3b3;stroke:none"
         d="m 207.38765,82.103379 0,6.21875 0.40625,2.375 2.21875,0 0.40625,-2.375 0,-6.21875 -3.03125,0 z"
         id="path4213" />
      <path
         id="path4215"
         d="m 217.38765,82.103379 0,6.21875 0.40625,2.375 2.21875,0 0.40625,-2.375 0,-6.21875 -3.03125,0 z"
         style="fill:#b3b3b3;stroke:none"
         inkscape:connector-curvature="0" />
    </g>
  </g>
</svg>
